# xmcd
#
# Track frame offsets:
#	190
#	18820
#	35770
#	49597
#	62447
#	80917
#	94470
#	107650
#	117262
#	139545
#	149822
#	169067
#
# Disc length: 2571 seconds
#
# Revision: 2
# Processed by: cddbd v1.4PL0 Copyright (c) Steve Scherf et al.
# Submitted via: CDmax 1.8
#
DISCID=a70a090c
DTITLE=Topp Twins - Twotiming
DYEAR=1900
DGENRE=
TTITLE0=Horse
TTITLE1=Calf Club Day
TTITLE2=Martina
TTITLE3=Whiteline to Georgia
TTITLE4=World
TTITLE5=Yodelling Association Gal
TTITLE6=Get On Back
TTITLE7=Rocking Over
TTITLE8=Jean Emily
TTITLE9=Hop n Bop
TTITLE10=History
TTITLE11=Love Song
EXTD=
EXTT0=
EXTT1=
EXTT2=
EXTT3=
EXTT4=
EXTT5=
EXTT6=
EXTT7=
EXTT8=
EXTT9=
EXTT10=
EXTT11=
PLAYORDER=
